<svg width="317" height="300" viewBox="0 0 317 300" fill="none" xmlns="http://www.w3.org/2000/svg">
<path d="M301.474 238.843C310.438 221.653 315.159 202.294 315.159 182.644C315.159 133.516 286.167 91.4138 245.197 73.9579C223.914 30.1217 180.464 0 130.403 0C59.4149 0 1.66193 60.5168 1.66193 134.902C1.66193 157.642 7.16954 180.056 17.6093 199.916L0 268.762L64.3721 250.696C83.6827 262.815 105.649 269.328 128.212 269.728C148.076 288.525 174.363 300 203.17 300C223.328 300 242.992 294.337 260.251 283.6L317 299.532L301.474 238.843ZM66.6738 234.54L20.2184 247.576L32.9456 197.823L31.448 195.126C21.3156 176.877 15.9581 156.05 15.9581 134.898C15.9581 68.7747 67.2993 14.9766 130.403 14.9766C193.506 14.9766 244.847 68.771 244.847 134.898C244.847 201.025 193.506 254.823 130.403 254.823C108.722 254.823 87.5999 248.415 69.3186 236.292L66.6738 234.54ZM296.778 278.346L257.96 267.448L255.316 269.2C239.711 279.552 221.68 285.02 203.174 285.02C183.477 285.02 165.171 278.818 149.813 268.268C211.623 258.433 259.143 202.373 259.143 134.902C259.143 121 257.124 107.585 253.382 94.9529C281.785 112.877 300.867 145.437 300.867 182.644C300.867 200.707 296.292 218.484 287.639 234.057L286.142 236.753L296.778 278.346Z" fill="black"/>
</svg>
