<svg width="317" height="317" viewBox="0 0 317 317" fill="none" xmlns="http://www.w3.org/2000/svg">
<path d="M190.386 154.661H157.509C116.089 154.661 111.817 215.585 115.655 219.485C125.995 229.144 148.47 235.893 174.288 235.893C200.106 235.893 221.343 229.454 231.001 220.414C234.902 217.133 231.744 154.661 190.386 154.661ZM221.962 211.375C214.223 218.495 195.525 222.953 174.288 222.953C153.052 222.953 134.354 218.433 126.614 211.375C125.995 209.455 129.586 166.92 158.19 166.92H191.067C219.362 166.858 222.643 209.393 221.962 211.375Z" fill="black"/>
<path d="M173.669 150.761C192.986 150.761 209.146 135.282 208.465 115.965C208.465 96.6479 192.986 81.1693 173.669 81.1693C154.352 81.1693 138.873 96.6479 138.873 115.965C138.873 135.282 154.29 150.761 173.669 150.761ZM173.669 94.0475C186.547 94.0475 196.206 103.706 196.206 115.965C196.206 128.224 185.866 137.883 173.669 137.883C161.472 137.883 151.07 128.224 151.07 115.965C151.07 103.706 161.41 94.0475 173.669 94.0475Z" fill="black"/>
<path d="M273.536 6.99628H69.2199C53.7414 6.99628 41.4824 19.2553 41.4824 34.7338V91.447H15.7262V104.325H41.4824V151.999H15.7262V164.877H41.4824V212.551H15.7262V225.429H41.4824V282.142C41.4824 297.621 53.7414 309.88 69.2199 309.88H272.917C288.396 309.88 300.655 297.621 301.274 282.142V34.7338C301.274 19.2553 289.015 6.99628 273.536 6.99628V6.99628ZM288.396 282.266C288.396 290.005 281.957 297.064 273.598 297.064H69.2819C61.5426 297.064 54.4844 290.625 54.4844 282.266V225.553H79.0024V212.675H54.4225V165.001H78.9405V152.123H54.4225V104.449H78.9405V91.5709H54.4225V34.7338C54.4225 26.9945 60.8615 19.9363 69.2199 19.9363H273.536C281.276 19.9363 288.334 26.3754 288.334 34.7338V282.266H288.396Z" fill="black"/>
</svg>
