<svg width="318" height="318" viewBox="0 0 318 318" fill="none" xmlns="http://www.w3.org/2000/svg">
<path d="M239.848 80.8475C239.848 36.2682 203.579 0 159 0C114.421 0 78.1526 36.2682 78.1526 80.8475C78.1526 123.61 111.543 158.628 153.61 161.42V312.61C153.61 315.591 156.025 318 159 318C161.975 318 164.39 315.591 164.39 312.61V161.42C206.458 158.628 239.848 123.61 239.848 80.8475ZM159 150.915C120.366 150.915 88.9322 119.482 88.9322 80.8475C88.9322 42.2132 120.366 10.7797 159 10.7797C197.634 10.7797 229.068 42.2132 229.068 80.8475C229.068 119.482 197.634 150.915 159 150.915Z" fill="black"/>
<path d="M132.051 37.7288C120.161 37.7288 110.492 47.3982 110.492 59.2881C110.492 71.1781 120.161 80.8475 132.051 80.8475C143.941 80.8475 153.61 71.1781 153.61 59.2881C153.61 47.3982 143.941 37.7288 132.051 37.7288ZM132.051 70.0678C126.106 70.0678 121.271 65.2331 121.271 59.2881C121.271 53.3432 126.106 48.5085 132.051 48.5085C137.996 48.5085 142.831 53.3432 142.831 59.2881C142.831 65.2331 137.996 70.0678 132.051 70.0678Z" fill="black"/>
</svg>
