<svg width="328" height="328" viewBox="0 0 328 328" fill="none" xmlns="http://www.w3.org/2000/svg">
<path d="M322.156 119.007L168.994 39.4995C165.863 37.8747 162.138 37.8747 159.006 39.4995L5.84468 119.007C2.25429 120.871 0.000867034 124.579 0 128.625C0 128.625 0 128.625 0 128.625V170.125C0 176.109 4.85192 180.963 10.8379 180.963C16.8239 180.963 21.6759 176.109 21.6759 170.125V146.462L44.9063 158.522V244.828C44.9063 247.088 45.6129 249.292 46.9291 251.132C48.0563 252.708 75.5412 289.719 164 289.719C252.46 289.719 279.942 252.708 281.07 251.132C282.384 249.293 283.09 247.088 283.09 244.828V158.522L322.156 138.243C325.747 136.379 328 132.67 328 128.625C328 124.579 325.746 120.871 322.156 119.007ZM261.414 240.644C254.217 247.562 227.532 268.045 164 268.045C100.468 268.045 73.782 247.562 66.5839 240.644V169.775L159.007 217.752C160.573 218.565 162.286 218.971 164 218.971C165.715 218.971 167.43 218.565 168.994 217.752L261.414 169.776V240.644ZM164 195.922L34.3623 128.626L164 61.3297L293.639 128.626L164 195.922Z" fill="black"/>
<path d="M10.8389 190.519C4.8529 190.519 0.000976562 195.371 0.000976562 201.357V214.464C0.000976562 220.449 4.8529 225.301 10.8389 225.301C16.8249 225.301 21.6768 220.449 21.6768 214.464V201.357C21.6768 195.371 16.8249 190.519 10.8389 190.519Z" fill="black"/>
</svg>
