<svg width="400" height="400" viewBox="0 0 400 400" fill="none" xmlns="http://www.w3.org/2000/svg">
<path d="M380.409 306.615C391.72 285.915 397.677 262.603 397.677 238.94C397.677 179.78 361.094 129.081 309.397 108.06C282.541 55.2726 227.715 19 164.546 19C74.9715 19 2.09707 91.8745 2.09707 181.449C2.09707 208.833 9.04673 235.824 22.22 259.74L0 342.644L81.2267 320.888C105.593 335.482 133.311 343.325 161.781 343.807C186.847 366.442 220.017 380.26 256.366 380.26C281.802 380.26 306.615 373.442 328.393 360.512L400 379.697L380.409 306.615ZM84.131 301.433L25.5121 317.132L41.5717 257.219L39.6821 253.971C26.8967 231.995 20.1364 206.916 20.1364 181.444C20.1364 101.819 84.9202 37.0348 164.546 37.0348C244.172 37.0348 308.955 101.814 308.955 181.444C308.955 261.074 244.172 325.858 164.546 325.858C137.189 325.858 110.536 318.142 87.4683 303.544L84.131 301.433ZM374.483 354.185L325.502 341.061L322.165 343.172C302.475 355.637 279.723 362.221 256.371 362.221C231.517 362.221 208.418 354.753 189.039 342.049C267.032 330.206 326.995 262.698 326.995 181.449C326.995 164.708 324.447 148.554 319.725 133.342C355.565 154.926 379.643 194.135 379.643 238.94C379.643 260.691 373.87 282.099 362.952 300.851L361.062 304.098L374.483 354.185Z" fill="black"/>
</svg>
