<svg width="446" height="446" viewBox="0 0 446 446" fill="none" xmlns="http://www.w3.org/2000/svg">
<path d="M411.672 374.611H34.3302C15.4006 374.611 0 359.21 0 340.281V105.719C0 86.7895 15.4006 71.3889 34.3302 71.3889H411.672C430.599 71.3889 446 86.7895 446 105.719V340.281C446 359.21 430.599 374.611 411.672 374.611ZM18.6504 354.285C22.5038 358.596 28.1072 361.317 34.3302 361.317H411.672C417.853 361.317 423.416 358.636 427.267 354.381L258.994 230.894L226.9 254.321C224.57 256.023 221.408 256.026 219.073 254.329L186.807 230.889L18.6504 354.285ZM270.259 222.669L432.647 341.831C432.687 341.321 432.703 340.802 432.703 340.281V105.719C432.703 105.19 432.682 104.663 432.644 104.142L270.259 222.669ZM13.3156 104.852C13.3023 105.139 13.297 105.429 13.297 105.719V340.281C13.297 340.754 13.313 341.222 13.3449 341.682L175.512 222.682L13.3156 104.852ZM18.3392 92.0658L222.967 240.724L427.254 91.611C423.403 87.3586 417.842 84.6859 411.67 84.6859H34.3302C27.937 84.6859 22.2033 87.5527 18.3392 92.0658Z" fill="#222221"/>
</svg>
