<svg width="388" height="388" viewBox="0 0 388 388" fill="none" xmlns="http://www.w3.org/2000/svg">
<path d="M316.215 29.081H248.326V41.2064H316.215V29.081Z" fill="black"/>
<path d="M224.448 29.081H162.787V41.2064H224.448V29.081Z" fill="black"/>
<path d="M138.496 29.081H73.0992V41.2064H138.496V29.081Z" fill="black"/>
<path d="M388 388H0V29.081H47.6234V41.2064H12.1254V375.875H375.875V41.2064H339.127V29.081H388V388Z" fill="black"/>
<path d="M66.5143 0H54.6367V72.849H66.5143V0Z" fill="black"/>
<path d="M157.576 0H145.698V72.849H157.576V0Z" fill="black"/>
<path d="M242.302 0H230.424V72.849H242.302V0Z" fill="black"/>
<path d="M333.363 0H321.486V72.849H333.363V0Z" fill="black"/>
<path d="M363.453 97.3959H24.5469V109.273H363.453V97.3959Z" fill="black"/>
<path d="M97.3081 194.965H36.1387V133.796H97.3081V194.965ZM48.2633 182.84H85.1827V145.92H48.2633V182.84Z" fill="black"/>
<path d="M182.147 194.965H120.978V133.796H182.147V194.965ZM133.103 182.84H170.022V145.92H133.103V182.84Z" fill="black"/>
<path d="M267.022 194.965H205.853V133.796H267.022V194.965ZM217.978 182.84H254.897V145.92H217.978V182.84Z" fill="black"/>
<path d="M351.785 194.965H290.615V133.796H351.785V194.965ZM302.741 182.84H339.66V145.92H302.741V182.84Z" fill="black"/>
<path d="M97.3081 273.778H36.1387V212.608H97.3081V273.778ZM48.2633 261.652H85.1827V224.733H48.2633V261.652Z" fill="black"/>
<path d="M182.147 273.778H120.978V212.608H182.147V273.778ZM133.103 261.652H170.022V224.733H133.103V261.652Z" fill="black"/>
<path d="M267.022 273.778H205.853V212.608H267.022V273.778ZM217.978 261.652H254.897V224.733H217.978V261.652Z" fill="black"/>
<path d="M351.785 273.778H290.615V212.608H351.785V273.778ZM302.741 261.652H339.66V224.733H302.741V261.652Z" fill="black"/>
<path d="M97.3081 352.59H36.1387V291.42H97.3081V352.59ZM48.2633 340.465H85.1827V303.546H48.2633V340.465Z" fill="black"/>
<path d="M182.147 352.59H120.978V291.42H182.147V352.59ZM133.103 340.465H170.022V303.546H133.103V340.465Z" fill="black"/>
<path d="M267.022 352.59H205.853V291.42H267.022V352.59ZM217.978 340.465H254.897V303.546H217.978V340.465Z" fill="black"/>
<path d="M351.785 352.59H290.615V291.42H351.785V352.59ZM302.741 340.465H339.66V303.546H302.741V340.465Z" fill="black"/>
</svg>
