<svg width="968" height="153" viewBox="0 0 968 153" fill="none" xmlns="http://www.w3.org/2000/svg">
<rect width="95.6671" height="15.8212" fill="#49B2D2"/>
<rect width="17.6229" height="47.4637" fill="#49B2D2"/>
<rect y="65.9218" width="85.5969" height="15.8212" fill="#49B2D2"/>
<rect y="134.48" width="95.6671" height="15.8212" fill="#49B2D2"/>
<rect y="65.9218" width="17.6229" height="47.4637" fill="#49B2D2"/>
<rect x="551.345" width="95.6671" height="15.8212" fill="#49B2D2"/>
<rect x="551.345" width="17.6229" height="47.4637" fill="#49B2D2"/>
<rect x="551.345" y="65.9218" width="85.5969" height="15.8212" fill="#49B2D2"/>
<rect x="551.345" y="134.48" width="95.6671" height="15.8212" fill="#49B2D2"/>
<rect x="551.345" y="65.9218" width="17.6229" height="47.4637" fill="#49B2D2"/>
<path d="M131.542 66.6892L113.29 66.6893C113.29 66.6893 114.431 36.2869 139.724 14.6111C153.571 2.74509 170.564 0.767472 181.264 0.108263C216.51 -2.06325 232.245 29.1138 234.133 32.41C230.356 35.0468 220.286 42.2983 220.286 42.2983C220.286 42.2983 208.328 16.5887 180.005 17.248C137.143 18.2457 131.542 66.6892 131.542 66.6892Z" fill="#49B2D2"/>
<path d="M131.542 66.6892L113.29 66.6893C113.29 66.6893 114.431 36.2869 139.724 14.6111C153.571 2.74509 170.564 0.767472 181.264 0.108263C216.51 -2.06325 232.245 29.1138 234.133 32.41C230.356 35.0468 220.286 42.2983 220.286 42.2983C220.286 42.2983 208.328 16.5887 180.005 17.248C137.143 18.2457 131.542 66.6892 131.542 66.6892Z" fill="#49B2D2"/>
<path d="M130.913 85.1473H113.29C113.29 85.1473 117.696 112.175 128.395 124.7C140.915 139.357 149.795 146.455 167.417 151.728C175.456 154.134 188.817 152.388 188.817 152.388C188.817 152.388 206.865 150.469 219.657 139.862C234.762 127.337 237.28 118.767 237.28 118.767L222.174 109.538C222.174 109.538 211.475 135.937 180.635 135.248C137.207 134.277 130.913 85.1473 130.913 85.1473Z" fill="#49B2D2"/>
<path d="M264.973 150.302H246.72L305.254 0.0002029H320.988L264.973 150.302Z" fill="#49B2D2"/>
<path d="M379.521 150.302L329.17 21.0952L320.988 42.8494L339.241 90.9723H303.365L297.701 106.134H343.646L360.64 150.302H379.521Z" fill="#49B2D2"/>
<path d="M420.432 36.9164H402.179V150.302H457.566C457.566 150.302 523.022 150.302 521.134 73.1734C519.246 -0.659017 457.566 0.0002029 457.566 0.0002029H402.179V16.4807H457.566C457.566 16.4807 503.407 20.9242 502.882 73.1734C502.252 135.799 457.566 133.821 457.566 133.821L420.432 134.078V36.9164Z" fill="#49B2D2"/>
<path d="M694.216 150.302H675.964V0H694.845L736.385 77.1285L726.315 94.2682L694.216 35.5978V150.302Z" fill="#49B2D2"/>
<path d="M742.049 123.274H752.749L799.953 35.5978L800.583 150.961H818.835L818.206 0H799.953L737.644 115.363L742.049 123.274Z" fill="#49B2D2"/>
<path d="M861.004 0H840.863L885.55 77.1285L894.361 61.3073L861.004 0Z" fill="#49B2D2"/>
<path d="M968 0H948.489L895.62 94.2682V150.302H913.873V94.2682L968 0Z" fill="#49B2D2"/>
</svg>
